<svg viewBox="0 0 1840 549" fill="none" xmlns="http://www.w3.org/2000/svg">
<clipPath id="letterClip"><rect x="0" y="0" width="1840" height="549"/></clipPath>
<g clip-path="url(#letterClip)">
<g class="letter" data-letter="0"><path d="M0 538.602V0H79.5815V470.053H343.762V538.602H0Z" fill="black"/></g>
<g class="letter" data-letter="1"><path d="M388.941 143.125H464.77V538.602H388.941V143.125ZM387.439 85.8753V0H466.271V85.8753H387.439Z" fill="black"/></g>
<g class="letter" data-letter="2"><path d="M509.661 418.078H584.74C597.502 460.262 625.281 485.872 680.087 485.872C725.136 485.872 757.418 465.534 757.418 430.129C757.418 393.219 719.879 383.425 664.321 369.868L636.542 362.334C571.225 346.516 522.426 317.137 522.426 248.587C522.426 178.531 585.489 132.58 673.331 132.58C760.421 132.58 817.481 170.244 826.49 247.833H754.417C743.153 212.429 716.876 192.843 671.08 192.843C623.03 192.843 599.756 212.429 599.756 241.807C599.756 274.199 623.03 283.239 671.08 297.551L713.123 309.604C791.955 332.201 833.249 356.308 833.249 422.598C833.249 498.68 767.929 547.643 677.836 547.643C581.737 547.643 525.426 506.214 509.661 418.078Z" fill="black"/></g>
<g class="letter" data-letter="3"><path d="M981.849 36.1586V143.126H1055.42V201.883H981.849V439.169C981.849 477.587 1000.62 488.134 1029.9 488.134C1035.15 488.134 1043.41 487.379 1048.67 486.627V543.123C1037.41 545.385 1029.15 546.137 1019.39 546.137C949.566 546.137 905.268 522.785 905.268 443.689V201.883H845.958V143.126H905.268V36.1586H981.849Z" fill="black"/></g>
<g class="letter" data-letter="4"><path d="M1455.88 360.826H1147.31C1149.56 430.127 1196.11 485.119 1271.19 485.119C1325.24 485.119 1351.52 459.506 1371.79 425.61H1447.62C1425.85 497.173 1362.03 548.396 1268.18 548.396C1146.56 548.396 1070.73 466.287 1070.73 342.746C1070.73 219.207 1150.31 131.825 1268.18 131.825C1396.57 131.825 1455.88 229.753 1455.88 335.968V360.826ZM1150.31 300.563H1377.05C1370.29 237.286 1332 193.595 1266.68 193.595C1204.37 193.595 1158.57 234.273 1150.31 300.563Z" fill="black"/></g>
<g class="letter" data-letter="5"><path d="M1576.47 143.125V196.608C1596.74 162.71 1635.78 131.825 1701.85 131.825C1792.68 131.825 1840 192.842 1840 295.291V538.602H1763.41V323.915C1763.41 245.572 1737.89 196.608 1675.57 196.608C1612.5 196.608 1577.97 247.832 1577.97 310.355V538.602H1502.14V173.256C1502.14 163.464 1502.14 152.918 1501.39 143.125H1576.47Z" fill="black"/></g>
</g>
</svg>
